# xmcd CD database file
#
# Track frame offsets:
#	150
#	13636
#	26353
#	41318
#	54360
#	67263
#	80666
#	93729
#	107767
#	119323
#	133147
#	147144
#	158105
#	172578
#	183724
#	193892
#	204570
#	218454
#	231239
#	242732
#
# Disc length: 3408 seconds
#
# Revision: 0
# Processed by: cddbd v1.5.2PL0 Copyright (c) Steve Scherf et al.
# Submitted via: CDex 1.51
#
DISCID=170d4e14
DTITLE=Muddy Waters - Mannish Boy
DYEAR=2007
DGENRE=Blues
TTITLE0=Mannish Boy
TTITLE1=I'm Your Hochie Koochie Man
TTITLE2=Baby Please Don't Go
TTITLE3=Got My Mojo Working
TTITLE4=I Live The Life I Love, I Love The Life I Live
TTITLE5=Don't Go No Further
TTITLE6=I Just Want To Make Love To You
TTITLE7=I'm Ready
TTITLE8=Sugar Sweet
TTITLE9=Youg Fashioned Ways
TTITLE10=Mad Love
TTITLE11=Look What You've Done
TTITLE12=Rock Me
TTITLE13=Diamonds At Your Feet
TTITLE14=Let Me Hang Around
TTITLE15=Evil
TTITLE16=Come Home Baby, I Wish You Would
TTITLE17=Good News
TTITLE18=I Want To Be Loved
TTITLE19=Forty Days And Forty Nights
EXTD=YEAR: 2007
EXTT0=
EXTT1=
EXTT2=
EXTT3=
EXTT4=
EXTT5=
EXTT6=
EXTT7=
EXTT8=
EXTT9=
EXTT10=
EXTT11=
EXTT12=
EXTT13=
EXTT14=
EXTT15=
EXTT16=
EXTT17=
EXTT18=
EXTT19=
PLAYORDER=
